<svg width="1400" height="900" viewBox="0 0 1400 900" fill="none" xmlns="http://www.w3.org/2000/svg">
  <defs>
    <linearGradient id="bg" x1="160" y1="120" x2="1270" y2="820" gradientUnits="userSpaceOnUse">
      <stop stop-color="#0B0E12"/>
      <stop offset="0.5" stop-color="#12161C"/>
      <stop offset="1" stop-color="#111827"/>
    </linearGradient>
    <linearGradient id="accent" x1="280" y1="260" x2="1120" y2="680" gradientUnits="userSpaceOnUse">
      <stop stop-color="#38BDF8" stop-opacity="0.9"/>
      <stop offset="0.55" stop-color="#5CE1E6" stop-opacity="0.55"/>
      <stop offset="1" stop-color="#F4B860" stop-opacity="0.2"/>
    </linearGradient>
    <filter id="shadow" x="0" y="0" width="1400" height="900" filterUnits="userSpaceOnUse" color-interpolation-filters="sRGB">
      <feDropShadow dx="0" dy="18" stdDeviation="26" flood-color="#000000" flood-opacity="0.35"/>
    </filter>
  </defs>

  <g filter="url(#shadow)">
    <rect x="90" y="70" width="1220" height="760" rx="34" fill="url(#bg)"/>
    <rect x="90" y="70" width="1220" height="760" rx="34" stroke="white" stroke-opacity="0.10"/>

    <rect x="120" y="110" width="230" height="690" rx="26" fill="white" fill-opacity="0.05"/>
    <rect x="150" y="148" width="150" height="14" rx="7" fill="white" fill-opacity="0.35"/>
    <rect x="150" y="184" width="190" height="10" rx="5" fill="white" fill-opacity="0.12"/>
    <rect x="150" y="208" width="165" height="10" rx="5" fill="white" fill-opacity="0.10"/>
    <rect x="150" y="232" width="180" height="10" rx="5" fill="white" fill-opacity="0.10"/>
    <rect x="150" y="256" width="145" height="10" rx="5" fill="white" fill-opacity="0.10"/>

    <rect x="380" y="110" width="900" height="90" rx="26" fill="white" fill-opacity="0.05"/>
    <rect x="410" y="142" width="260" height="14" rx="7" fill="white" fill-opacity="0.22"/>
    <rect x="1070" y="134" width="180" height="32" rx="16" fill="url(#accent)" fill-opacity="0.25"/>

    <rect x="380" y="226" width="430" height="220" rx="26" fill="white" fill-opacity="0.05"/>
    <rect x="410" y="256" width="220" height="14" rx="7" fill="white" fill-opacity="0.18"/>
    <rect x="410" y="290" width="370" height="10" rx="5" fill="white" fill-opacity="0.10"/>
    <rect x="410" y="314" width="330" height="10" rx="5" fill="white" fill-opacity="0.10"/>
    <rect x="410" y="348" width="120" height="70" rx="16" fill="url(#accent)" fill-opacity="0.22"/>
    <rect x="542" y="348" width="120" height="70" rx="16" fill="white" fill-opacity="0.07"/>
    <rect x="674" y="348" width="120" height="70" rx="16" fill="white" fill-opacity="0.07"/>

    <rect x="850" y="226" width="430" height="220" rx="26" fill="white" fill-opacity="0.05"/>
    <rect x="880" y="256" width="190" height="14" rx="7" fill="white" fill-opacity="0.18"/>
    <rect x="880" y="292" width="340" height="130" rx="22" fill="white" fill-opacity="0.06"/>
    <path d="M900 395C940 355 972 380 1014 340C1060 298 1100 312 1134 292C1168 272 1194 286 1218 266" stroke="url(#accent)" stroke-width="6" stroke-linecap="round" stroke-linejoin="round" opacity="0.85"/>

    <rect x="380" y="470" width="900" height="330" rx="26" fill="white" fill-opacity="0.05"/>
    <rect x="410" y="502" width="260" height="14" rx="7" fill="white" fill-opacity="0.18"/>
    <rect x="410" y="540" width="840" height="52" rx="18" fill="white" fill-opacity="0.04" stroke="white" stroke-opacity="0.08"/>
    <rect x="410" y="606" width="840" height="52" rx="18" fill="white" fill-opacity="0.04" stroke="white" stroke-opacity="0.08"/>
    <rect x="410" y="672" width="840" height="52" rx="18" fill="white" fill-opacity="0.04" stroke="white" stroke-opacity="0.08"/>
    <rect x="410" y="738" width="650" height="14" rx="7" fill="white" fill-opacity="0.08"/>
  </g>
</svg>

